<?xml version="1.0" encoding="utf-8"?>
<!-- Generator: Adobe Illustrator 27.2.0, SVG Export Plug-In . SVG Version: 6.00 Build 0)  -->
<svg version="1.1" id="Capa_1" xmlns="http://www.w3.org/2000/svg" xmlns:xlink="http://www.w3.org/1999/xlink" x="0px" y="0px"
	 viewBox="0 0 284.6 82" style="enable-background:new 0 0 284.6 82;" xml:space="preserve">
<style type="text/css">
	.st0{fill-rule:evenodd;clip-rule:evenodd;}
	.st1{fill:#FFFFFF;}
	.st2{fill:#81A36E;}
	.st3{fill:#E1D7D0;}
	.st4{fill:none;stroke:#81A36E;stroke-width:1.5;stroke-linecap:round;stroke-linejoin:round;stroke-miterlimit:10;}
	.st5{fill:none;stroke:#FFFFFF;stroke-width:1.5;stroke-linecap:round;stroke-linejoin:round;stroke-miterlimit:10;}
	.st6{fill:#232323;}
	.st7{fill:#8E8D8D;}
	.st8{fill:#73A96B;}
	.st9{fill:#667F61;}
	.st10{fill-rule:evenodd;clip-rule:evenodd;fill:#616161;}
</style>
<g>
	<g>
		<path class="st2" d="M54.3,67.4V48.1c0-4.8-0.7-8.7-2-11.8c-1.4-3.1-3.1-5.6-5.1-7.5c-2-1.9-4.3-3.2-6.8-3.9
			c-2.5-0.7-4.9-1.1-7.1-1.1c-2.2,0-4.2,0.3-6.1,0.8c-1.9,0.5-3.6,1.2-5,2c-1.5,0.8-2.8,1.8-4,2.8c-1.2,1-2.1,2-2.8,3.1l-0.8-6.9
			c0-0.4-0.2-0.6-0.7-0.6H2.7C2.2,25,2,25.2,2,25.7C2.1,28,2.3,30.4,2.3,33c0.1,2.5,0.1,5.2,0.1,8.2v36.9c0,0.4,0.2,0.7,0.7,0.7
			h12.8c0.4,0,0.7-0.2,0.7-0.7V47.6c0-0.7,0.1-1.3,0.2-2c0.1-0.7,0.3-1.3,0.5-1.9c0.8-2,2.2-3.9,4.2-5.6c2-1.7,4.5-2.6,7.5-2.6
			c4,0,6.9,1.3,8.7,4c1.8,2.7,2.6,6.1,2.6,10.1v17.9c0,2.6,0,5.1,0,7.2c0,1.9,0,3.7,0,3.8c0.1,0.2,0.3,0.3,0.7,0.3l12.8,0
			c0.6-0.1,0.7-0.4,0.7-1c0-0.2,0-1.4,0-2.8C54.3,73.8,54.3,68.7,54.3,67.4z"/>
	</g>
	<g>
		<path class="st2" d="M148.4,36c0.4,0,0.7-0.2,0.7-0.7l0.6-9.6c0-0.4-0.2-0.7-0.7-0.7h-13.2V12.3c0-0.6-0.3-0.8-0.9-0.7l-12.5,3.5
			c-0.3,0.2-0.4,0.4-0.4,0.7V25h-6.3c-0.1,0-1.9-0.1-2.1,0.1c-0.2,0.2-0.2,1-0.2,1.7c0,0.7,0,1.1,0,1.2v7.5c0,0.1,0.1,0.3,0.2,0.3
			c0.1,0.1,0.3,0.1,0.4,0.1h7.9v24.2c0,3.3,0.4,6.2,1.1,8.8c0.7,2.6,1.9,4.7,3.4,6.4c1.2,1.4,2.9,2.5,5,3.4c2.1,0.9,4.5,1.3,7.2,1.3
			c2.2,0,4.2-0.1,6-0.4c1.8-0.3,3.2-0.7,4.2-1.1c0.3-0.2,0.4-0.4,0.4-0.7l-0.3-9.6c0-0.6-0.3-0.8-0.9-0.7c-0.8,0.3-1.6,0.5-2.4,0.6
			c-0.8,0.1-1.9,0.2-3.2,0.2c-2.6,0-4.4-0.9-5.3-2.6c-0.9-1.8-1.4-4.1-1.4-7.1V36H148.4z"/>
	</g>
	<g>
		<path class="st2" d="M169.3,25h-12.8c-0.4,0-0.7,0.2-0.7,0.7v52.4c0,0.4,0.2,0.7,0.7,0.7h12.8c0.4,0,0.7-0.2,0.7-0.7V25.7
			C170,25.2,169.8,25,169.3,25z"/>
	</g>
	<g>
		<path class="st2" d="M163,2c-2.6,0-4.6,0.8-6.1,2.4c-1.5,1.6-2.2,3.4-2.2,5.5c0,2.1,0.7,4,2.2,5.5c1.5,1.6,3.5,2.4,6,2.4
			c2.6,0,4.7-0.8,6.2-2.4c1.5-1.6,2.2-3.4,2.2-5.5c-0.1-2.2-0.8-4.1-2.3-5.6C167.5,2.8,165.5,2,163,2z"/>
	</g>
	<g>
		<path class="st2" d="M232.9,25h-13.6c-0.3,0-0.5,0.1-0.7,0.4L208.5,53c-0.7,1.9-1.4,3.8-2,5.6c-0.6,1.9-1.2,3.6-1.8,5.3
			c-0.7-2-1.3-3.7-1.8-5.3c-0.5-1.6-1.1-3.4-1.9-5.6l-10.2-27.5c-0.2-0.3-0.4-0.4-0.7-0.4h-13.9c-0.7,0-0.8,0.3-0.5,0.9l21.4,52.4
			c0.1,0.3,0.4,0.4,0.7,0.4h12.8c0.3,0,0.5-0.1,0.7-0.4l22.1-52.4C233.7,25.3,233.5,25,232.9,25z"/>
	</g>
	<g>
		<path class="st2" d="M108.9,72.1c-0.3-2.3-0.4-4.6-0.4-6.9V46.9c0-2.9-0.4-5.7-1-8.4c-0.7-2.8-1.9-5.2-3.7-7.4
			c-1.8-2.2-4.2-3.9-7.2-5.3c-3-1.4-6.8-2-11.4-2c-1.3,0-2.5,0-3.7,0.1c-1.5,0-3.1,0.3-5.1,0.6c-0.1,0-4.8,1-9.3,3l0,0
			c0,0-0.1,0-0.1,0c-1.4,0.7-1,1.6-1,1.6s2,6.6,2.1,6.9c0.1,0.3,0.4,1.7,1.1,1.4c0,0,0.1,0,0.2-0.1c4.3-1.9,8.5-2.7,8.5-2.7
			C80,34.2,82,34,83.6,34c2.4,0,4.3,0.4,5.7,1c0.7,0.3,1.3,0.7,1.9,1.1c3,2.3,3.3,5.8,3.3,6.9c0,0.2,0,0.3,0,0.3l0,0.1
			c-11.2,0-19.5,1.7-25.3,5.2c-5.7,3.5-8.6,8.6-8.6,15.3c0,1.6,0.3,3.2,0.8,4.9c0.5,1.6,1.3,3.2,2.4,4.6c1.1,1.4,4.6,6.1,15.6,6.4
			c6.3,0.2,10.4-2.5,12-3.7c2-1.5,4.1-3.6,4.1-3.6l1.9,6.8c0.2,0.4,0.4,0.5,0.8,0.5l11.2-1.1c0.5,0,0.7-0.2,0.5-0.8
			C109.5,76.3,109.2,74.4,108.9,72.1z M89.3,67.6c-3.4,2.9-8.6,2.8-10.9,1.8c-2.4-1.1-4.2-3.2-4.4-6s1.2-4.5,1.2-4.5
			c3.9-7.6,19.5-6.5,19.5-6.5C94.9,59.1,92.9,64.4,89.3,67.6z"/>
	</g>
	<g>
		<path class="st2" d="M281.6,72.1c-0.3-2.3-0.4-4.6-0.4-6.9V46.9c0-2.9-0.3-5.7-1-8.4c-0.7-2.8-1.9-5.2-3.7-7.4
			c-1.8-2.2-4.2-3.9-7.2-5.3c-3-1.4-6.8-2-11.4-2c-1.3,0-2.5,0-3.7,0.1c-1.5,0-3.1,0.3-5.1,0.6c-0.1,0-4.8,1-9.3,3l0,0
			c0,0-0.1,0-0.1,0c-1.4,0.7-1,1.6-1,1.6s2,6.6,2.1,6.9c0.1,0.3,0.4,1.7,1.1,1.4c0,0,0.1,0,0.2-0.1c4.3-1.9,8.5-2.7,8.5-2.7
			c2.2-0.4,4.1-0.6,5.8-0.6c2.4,0,4.3,0.4,5.7,1c0.7,0.3,1.3,0.7,1.9,1.1c3,2.3,3.3,5.8,3.3,6.9c0,0.2,0,0.3,0,0.3v0.1
			c-11.2,0-19.5,1.7-25.3,5.2c-5.7,3.5-8.6,8.6-8.6,15.3c0,1.6,0.3,3.2,0.8,4.9c0.5,1.6,1.3,3.2,2.4,4.6c1,1.4,4.6,6.1,15.6,6.4
			c6.3,0.2,10.4-2.5,12-3.7c2.1-1.5,4.1-3.6,4.1-3.6l1.9,6.8c0.1,0.4,0.4,0.5,0.8,0.5l11.2-1.1c0.5,0,0.7-0.2,0.6-0.8
			C282.2,76.3,281.9,74.4,281.6,72.1z M262,67.6c-3.4,2.9-8.5,2.8-10.9,1.8c-2.4-1.1-4.2-3.2-4.4-6c-0.2-2.8,1.2-4.5,1.2-4.5
			c3.9-7.6,19.5-6.5,19.5-6.5C267.6,59.1,265.6,64.4,262,67.6z"/>
	</g>
</g>
</svg>
