<?xml version="1.0" encoding="utf-8"?>
<!-- Generator: Adobe Illustrator 27.2.0, SVG Export Plug-In . SVG Version: 6.00 Build 0)  -->
<svg version="1.1" id="Capa_1" xmlns="http://www.w3.org/2000/svg" xmlns:xlink="http://www.w3.org/1999/xlink" x="0px" y="0px"
	 viewBox="0 0 280.4 97.1" style="enable-background:new 0 0 280.4 97.1;" xml:space="preserve">
<style type="text/css">
	.st0{fill-rule:evenodd;clip-rule:evenodd;}
	.st1{fill:#FFFFFF;}
	.st2{fill:#81A36E;}
	.st3{fill:#E1D7D0;}
	.st4{fill:none;stroke:#81A36E;stroke-width:1.5;stroke-linecap:round;stroke-linejoin:round;stroke-miterlimit:10;}
	.st5{fill:none;stroke:#FFFFFF;stroke-width:1.5;stroke-linecap:round;stroke-linejoin:round;stroke-miterlimit:10;}
	.st6{fill:#232323;}
	.st7{fill:#8E8D8D;}
	.st8{fill:#73A96B;}
	.st9{fill:#667F61;}
	.st10{fill-rule:evenodd;clip-rule:evenodd;fill:#616161;}
</style>
<g>
	<g>
		<path class="st10" d="M29.7,58.4H4V6.9h12.1v40.5H32L29.7,58.4L29.7,58.4z M263.2,58.3c-4,11.3-6.5,15.9-22.8,15.9v-6.5
			c6.9-1,10-3.4,12.7-9.4h-3.2c-0.5-2.7-1.5-6.9-2.5-9.8l-8.6-27.9l11.9-1l5.2,19.9c0.7,2.6,1.3,5.2,1.6,7.8h0.1
			c0.5-3.9,1.3-8.4,2.3-11.8l4.6-15.4h11.8L263.2,58.3L263.2,58.3z M225.3,58.4l-8.9-21.6l6.1-16.5h13.7l-9.4,15.5l11.7,22.6H225.3
			L225.3,58.4z M204.6,58.4V17.6c0-5-0.1-8.9-0.7-11.3l11.6-2.2c0.5,3,0.7,6.1,0.7,13.4v40.8H204.6L204.6,58.4z M184.6,59.3
			c-5,0-9.8-1.8-15-4.8l4.1-9.3c2.3,1.6,7.9,4.9,11.3,4.9c2.1,0,3.6-1.5,3.6-2.9c0-2.1-1.1-2.7-4.6-3.5l-4.5-1
			c-5.6-1.3-8.1-5-8.1-10.4c0-7.8,5.6-13,14.2-13c6.8,0,10.3,2.3,13.7,3.9l-3.6,8c-3.4-2-6.2-2.8-8.5-2.8c-1.8,0-3,0.9-3,2.1
			c0,1.3,0.8,2.4,3.6,3l4.3,1c6.1,1.5,8.6,5.2,8.6,11.2C200.7,54,194.3,59.3,184.6,59.3L184.6,59.3z M154.5,58.4V34
			c0-4.1-1.2-4.1-2.9-4.1c-0.9,0-2.2,0.7-3.8,2.2v26.3h-11.7V34.2c0-4.6-0.2-8.7-1.1-12.8l10.7-2c0.3,0.9,0.6,2.4,0.7,3.5
			c2.3-1.8,5.4-3.6,10-3.6c8.1,0,9.7,5.2,9.7,10.5v28.6H154.5L154.5,58.4z M118.3,42.6v6.6c-0.4,0.6-1.7,1.3-2.8,1.3
			c-2,0-3.2-1.5-3.2-3.7C112.3,44.6,113.4,42.4,118.3,42.6L118.3,42.6z M125.8,59.9l6.7-7.2c-2.4-1.7-2.7-4.3-2.7-7.5l0.1-13.2
			c0-2.8-0.1-4.2-0.5-5.9c-1.3-4.5-5.9-6.9-12.5-6.9c-5.7,0-11.3,2.5-15.6,5.4l4.2,8c3-2.4,6-4,9.9-4c2.5,0,2.8,1.3,2.8,3.5v2.4
			c-0.3-0.1-1.5-0.1-1.9-0.1c-9.7,0-15.4,5.2-15.4,12.4c0,6.8,3.3,12.4,11.9,12.4c4.1,0,7-1.6,8.7-3.2
			C122.1,57.4,124.2,59.3,125.8,59.9L125.8,59.9z M86.6,58.4V34.8c0-5.1-0.5-5.4-2.5-5.4c-0.7,0-2.6,0.7-3.8,1.5v27.5H69.5V34.8
			c0-5-0.1-5.5-2.4-5.5c-1.1,0-2.8,0.7-3.7,1.5v27.7H52V34.2c0-4.6-0.2-8.7-1.1-12.8l10.7-2c0.3,1.3,0.6,2.3,0.7,3.7
			c2.4-2.4,5.4-3.8,8.4-3.8c3.7,0,6,1.7,7.8,4.1c2.8-2.7,5.9-4.1,9.9-4.1c4.8,0,9.4,1.8,9.4,11.3v27.8H86.6L86.6,58.4z M35.1,58.4
			V20.9l11.7-1.2v38.7H35.1L35.1,58.4z M40.8,17.5c-3.6,0-6.6-3.3-6.6-7.2c0-4,3.1-7.2,6.8-7.2c3.7,0,6.6,3.2,6.6,7.2
			C47.6,14.2,44.6,17.5,40.8,17.5L40.8,17.5z"/>
	</g>
	<g>
		<path class="st10" d="M269.7,75.3c-31-7.7-78.4-12.7-131.5-12.7S37.7,67.5,6.6,75.3H269.7L269.7,75.3z"/>
	</g>
	<g>
		<path class="st10" d="M14.1,85.2c-0.3-0.6-0.9-1.7-2.5-1.7c-2.1,0-2.9,1.8-2.9,3.1c0,1.5,1,3.1,2.9,3.1c1.2,0,2.1-0.7,2.5-1.6h1.8
			c-0.7,2-2.4,3.1-4.4,3.1C8.7,91.3,7,89,7,86.7c0-2.4,1.8-4.6,4.5-4.6c2.5,0,4,1.9,4.3,3.2H14.1L14.1,85.2z M263.3,84.6
			c-0.1-0.7-0.5-1.1-1.1-1.1c-0.6,0-1,0.4-1,0.9c0,0.7,0.6,0.9,1.4,1.1c0.7,0.2,2.7,0.8,2.7,2.9c0,1.6-1.1,2.8-3,2.8
			c-1.1,0-3.1-0.7-3.1-3.1h1.7c0.1,1,0.6,1.6,1.5,1.6c0.7,0,1.3-0.5,1.3-1.2c0-0.8-0.7-1-1.5-1.4c-1-0.3-2.5-0.8-2.5-2.7
			c0-1.3,1.1-2.5,2.8-2.5c1,0,2.7,0.6,2.7,2.6H263.3L263.3,84.6z M251.7,86.7c0,1.7-1.3,3.2-3.1,3.2c-1.8,0-3.1-1.5-3.1-3.1
			c0-1.6,1.2-3.1,3.1-3.1C250.4,83.6,251.7,85.1,251.7,86.7L251.7,86.7z M253.3,86.7c0-2.5-2.1-4.6-4.8-4.6c-2.7,0-4.8,2.2-4.8,4.6
			c0,2.2,1.8,4.7,4.8,4.7C251.6,91.3,253.3,88.8,253.3,86.7L253.3,86.7z M230.5,79.9c0.9-0.6,1.4-0.6,1.6-0.6c0.4,0,1.9,0.4,2.2,0.4
			c0.4,0,0.5-0.1,1.3-0.4l0.7,1c-0.8,0.7-1.5,0.7-1.7,0.7c-0.4,0-1.9-0.4-2.3-0.4c-0.4,0-0.7,0.2-1.1,0.3L230.5,79.9L230.5,79.9z
			 M235.7,91.1v-4.8c0-0.7,0-2.8-2.2-2.8c-1.4,0-2.3,1-2.3,2.7v4.8h-1.7v-8.8h1.5v0.9h0c0.9-1.2,2.2-1.2,2.6-1.2
			c1.4,0,2.5,0.6,3.1,1.6c0.4,0.6,0.5,1.3,0.6,2.3v5.2H235.7L235.7,91.1z M215.7,86.1c0.1-1.3,1.3-2.6,2.9-2.6
			c1.6,0,2.8,1.3,2.9,2.6H215.7L215.7,86.1z M223,87.4c0-0.1,0-0.6,0-0.8c0-2.6-2.1-4.5-4.5-4.5c-2.5,0-4.5,2-4.5,4.6
			c0,2.5,2,4.7,4.5,4.7c1.4,0,3.4-0.7,4.2-3h-1.7c-0.4,0.8-1.3,1.5-2.5,1.5c-1.1,0-2.5-0.7-2.9-2.4H223L223,87.4z M201.4,82.3v4.8
			c0,2.2,1,2.8,2.2,2.8c1.4,0,2.3-0.9,2.3-2.8v-4.7h1.7v8.8h-1.5v-1h0c-0.5,0.8-1.5,1.2-2.6,1.2c-1,0-1.9-0.3-2.5-0.9
			c-0.7-0.6-1.2-1.6-1.2-3.4v-4.8H201.4L201.4,82.3z M191.7,84.6c-0.1-0.7-0.5-1.1-1.1-1.1c-0.6,0-1,0.4-1,0.9
			c0,0.7,0.6,0.9,1.4,1.1c0.7,0.2,2.7,0.8,2.7,2.9c0,1.6-1.1,2.8-3,2.8c-1.1,0-3.1-0.7-3.1-3.1h1.7c0.1,1,0.6,1.6,1.5,1.6
			c0.8,0,1.3-0.5,1.3-1.2c0-0.8-0.7-1-1.5-1.4c-1-0.3-2.5-0.8-2.5-2.7c0-1.3,1.1-2.5,2.8-2.5c1,0,2.7,0.6,2.7,2.6H191.7L191.7,84.6z
			 M170.9,86.7c0,1.7-1.3,3.2-3.1,3.2c-1.9,0-3.1-1.5-3.1-3.1c0-1.6,1.2-3.1,3.1-3.1C169.6,83.6,170.9,85.1,170.9,86.7L170.9,86.7z
			 M172.5,86.7c0-2.5-2.1-4.6-4.8-4.6c-2.7,0-4.8,2.2-4.8,4.6c0,2.2,1.8,4.7,4.8,4.7C170.8,91.3,172.5,88.8,172.5,86.7L172.5,86.7z
			 M155,86.7c0,1.7-1.3,3.1-3.1,3.1c-1.8,0-3-1.5-3-3.1c0-1.4,1-3.2,3-3.2C153.7,83.6,155,84.8,155,86.7L155,86.7z M156.6,91.1V79.3
			h-1.7v4.1h0c-0.6-0.8-1.8-1.3-3-1.3c-3.1,0-4.6,2.5-4.6,4.7c0,2.3,1.7,4.6,4.6,4.6c1.3,0,2.4-0.5,3.1-1.5h0v1.3H156.6L156.6,91.1z
			 M139.2,91.1v-4.8c0-0.7,0-2.8-2.2-2.8c-1.4,0-2.3,1-2.3,2.7v4.8H133v-8.8h1.5v0.9h0c0.9-1.2,2.2-1.2,2.6-1.2
			c1.4,0,2.5,0.6,3.1,1.6c0.4,0.6,0.5,1.3,0.6,2.3v5.2H139.2L139.2,91.1z M119.2,86.1c0.1-1.3,1.3-2.6,2.9-2.6
			c1.6,0,2.8,1.3,2.9,2.6H119.2L119.2,86.1z M126.5,87.4c0-0.1,0-0.6,0-0.8c0-2.6-2.1-4.5-4.5-4.5c-2.5,0-4.5,2-4.5,4.6
			c0,2.5,2,4.7,4.5,4.7c1.4,0,3.4-0.7,4.2-3h-1.7c-0.4,0.8-1.3,1.5-2.5,1.5c-1.1,0-2.5-0.7-2.9-2.4H126.5L126.5,87.4z M111.1,91.1
			h-1.7v-8.8h1.7V91.1L111.1,91.1z M111.1,81.3h-1.7v-1.9h1.7V81.3L111.1,81.3z M102,91.1h-1.7v-7.3h-1.2v-1.5h1.2v-3h1.7v3h1.5v1.5
			H102V91.1L102,91.1z M89.7,91.1v-8.8h1.5v0.8h0c0.7-1,1.8-1,2.2-1v1.7c-0.3,0-0.8,0.1-1.2,0.3c-0.5,0.3-1,1-1,2.2v4.8H89.7
			L89.7,91.1z M81.1,86.7c0,1.7-1.3,3.1-3.1,3.1c-1.8,0-3-1.5-3-3.1c0-1.4,1-3.2,3-3.2C79.8,83.6,81.1,84.8,81.1,86.7L81.1,86.7z
			 M82.7,91.1v-8.8h-1.7v1.2h0c-0.6-1-1.8-1.5-3-1.5c-3.2,0-4.7,2.5-4.7,4.7c0,2.3,1.7,4.6,4.7,4.6c1.2,0,2.4-0.5,3-1.6h0v1.4H82.7
			L82.7,91.1z M65.7,86.7c0,1.9-1.4,3.1-3,3.1c-1.7,0-3-1.4-3-3.1c0-1.6,1.2-3.1,3-3.1C64.5,83.6,65.7,85.1,65.7,86.7L65.7,86.7z
			 M58.1,94.1h1.7v-4.2h0c0.3,0.6,1.3,1.5,3.1,1.5c2.8,0,4.5-2.3,4.5-4.5c0-2.4-1.6-4.8-4.6-4.8c-1.1,0-2.3,0.4-3.1,1.6h0v-1.4h-1.5
			V94.1L58.1,94.1z M49.5,91.1v-4.9c0-0.8-0.1-2.6-2.1-2.6c-2.1,0-2.1,1.9-2.1,2.6v4.9h-1.7v-4.9c0-0.7,0-1.2-0.4-1.8
			c-0.4-0.6-1-0.8-1.6-0.8c-2.2,0-2.2,2-2.2,2.6v4.9h-1.7v-8.8h1.5v1h0c0.3-0.4,0.9-1.2,2.5-1.2c1.1,0,2.3,0.5,2.7,1.5
			c0.3-0.4,0.9-1.5,2.9-1.5c1.5,0,2.5,0.6,3.1,1.6c0.3,0.6,0.5,1.3,0.5,2.2v5.3H49.5L49.5,91.1z M29.7,86.7c0,1.7-1.3,3.2-3.1,3.2
			c-1.9,0-3.1-1.5-3.1-3.1c0-1.6,1.2-3.1,3.1-3.1C28.5,83.6,29.7,85.1,29.7,86.7L29.7,86.7z M31.4,86.7c0-2.5-2.1-4.6-4.8-4.6
			c-2.7,0-4.8,2.2-4.8,4.6c0,2.2,1.8,4.7,4.8,4.7C29.6,91.3,31.4,88.8,31.4,86.7L31.4,86.7z"/>
	</g>
</g>
</svg>
