<?xml version="1.0" encoding="utf-8"?>
<!-- Generator: Adobe Illustrator 27.2.0, SVG Export Plug-In . SVG Version: 6.00 Build 0)  -->
<svg version="1.1" id="Capa_1" xmlns="http://www.w3.org/2000/svg" xmlns:xlink="http://www.w3.org/1999/xlink" x="0px" y="0px"
	 viewBox="0 0 255 209.8" style="enable-background:new 0 0 255 209.8;" xml:space="preserve">
<style type="text/css">
	.st0{fill-rule:evenodd;clip-rule:evenodd;}
	.st1{fill:#FFFFFF;}
	.st2{fill:#81A36E;}
	.st3{fill:#E1D7D0;}
	.st4{fill:none;stroke:#81A36E;stroke-width:1.5;stroke-linecap:round;stroke-linejoin:round;stroke-miterlimit:10;}
	.st5{fill:none;stroke:#FFFFFF;stroke-width:1.5;stroke-linecap:round;stroke-linejoin:round;stroke-miterlimit:10;}
	.st6{fill:#232323;}
	.st7{fill:#8E8D8D;}
	.st8{fill:#73A96B;}
	.st9{fill:#667F61;}
	.st10{fill-rule:evenodd;clip-rule:evenodd;fill:#616161;}
</style>
<g>
	<path d="M74.8,166.7c5,0,9-4,9-9c0-5-4-9-9-9c-5,0-9,4-9,9C65.8,162.7,69.8,166.7,74.8,166.7z M74.8,152.9c2.7,0,4.9,2.2,4.9,4.9
		c0,2.7-2.2,4.9-4.9,4.9s-4.9-2.2-4.9-4.9C69.9,155,72.1,152.9,74.8,152.9z"/>
	<path d="M191.1,50H91.7c-1.1-8.4-8.2-14.9-16.9-14.9c-4.6,0-8.8,1.8-12.1,5c-3.2,3.2-5,7.5-5,12v105.6c0,0,0,0,0,0
		c0,9.4,7.6,17,17,17c0,0,0,0,0,0h0c0,0,0,0,0,0s0,0,0,0h116.3c3.4,0,6.2-2.8,6.2-6.2V56.1C197.3,52.7,194.5,50,191.1,50z
		 M91.8,157.8C91.8,157.8,91.8,157.8,91.8,157.8l0-1.1h75c1.1,0,2-0.9,2-2c0-1.1-0.9-2-2-2h-75v-5.5h101.4v5.5H175c-1.1,0-2,0.9-2,2
		c0,1.1,0.9,2,2,2h18.2v5.5h-102C91.6,160.8,91.8,159.3,91.8,157.8z M129.2,110.3c-1.1,0-2,0.9-2,2c0,1.1,0.9,2,2,2h64v5.5H91.8
		v-5.5H121c1.1,0,2-0.9,2-2c0-1.1-0.9-2-2-2H91.8v-5.5h101.4v5.5H129.2z M91.8,100.8v-7.1l1.7,1.6c0.4,0.4,1,0.4,1.4,0l3.4-3.4
		c0.2-0.2,0.3-0.4,0.3-0.7c0,0.2,0.1,0.5,0.3,0.7l3.4,3.4c0.4,0.4,1,0.4,1.4,0l3.4-3.4c0.2-0.2,0.3-0.4,0.3-0.7
		c0,0.2,0.1,0.5,0.3,0.7l3.4,3.4c0.4,0.4,1,0.4,1.4,0l3.4-3.4c0.2-0.2,0.3-0.4,0.3-0.7c0,0.2,0.1,0.5,0.3,0.7l3.4,3.4
		c0.4,0.4,1,0.4,1.4,0l3.4-3.4c0.2-0.2,0.3-0.4,0.3-0.7c0,0.2,0.1,0.5,0.3,0.7l3.4,3.4c0.4,0.4,1,0.4,1.4,0l3.4-3.4
		c0.2-0.2,0.3-0.4,0.3-0.7c0,0.2,0.1,0.5,0.3,0.7l3.4,3.4c0.4,0.4,1,0.4,1.4,0l3.4-3.4c0.2-0.2,0.3-0.4,0.3-0.7
		c0,0.2,0.1,0.5,0.3,0.7l3.4,3.4c0.4,0.4,1,0.4,1.4,0l3.4-3.4c0.2-0.2,0.3-0.4,0.3-0.7c0,0.2,0.1,0.5,0.3,0.7l3.4,3.4
		c0.4,0.4,1,0.4,1.4,0l3.4-3.4c0.2-0.2,0.3-0.4,0.3-0.7c0,0.2,0.1,0.5,0.3,0.7l3.4,3.4c0.4,0.4,1,0.4,1.4,0l3.4-3.4
		c0.2-0.2,0.3-0.4,0.3-0.7c0,0.2,0.1,0.5,0.3,0.7l3.4,3.4c0.4,0.4,1,0.4,1.4,0l3.4-3.4c0.2-0.2,0.3-0.4,0.3-0.7
		c0,0.2,0.1,0.5,0.3,0.7l3.4,3.4c0.4,0.4,1,0.4,1.4,0l3.4-3.4c0.2-0.2,0.3-0.4,0.3-0.7c0,0.2,0.1,0.5,0.3,0.7l3.4,3.4
		c0.4,0.4,1,0.4,1.4,0l1.7-1.7v7.1H91.8z M191.5,87.1c-0.4-0.4-1-0.4-1.4,0l-3.4,3.4c-0.2,0.2-0.3,0.4-0.3,0.7
		c0-0.2-0.1-0.5-0.3-0.7l-3.4-3.4c-0.4-0.4-1-0.4-1.4,0l-3.4,3.4c-0.2,0.2-0.3,0.4-0.3,0.7c0-0.2-0.1-0.5-0.3-0.7l-3.4-3.4
		c-0.4-0.4-1-0.4-1.4,0l-3.4,3.4c-0.2,0.2-0.3,0.4-0.3,0.7c0-0.2-0.1-0.5-0.3-0.7l-3.4-3.4c-0.4-0.4-1-0.4-1.4,0l-3.4,3.4
		c-0.2,0.2-0.3,0.4-0.3,0.7c0-0.2-0.1-0.5-0.3-0.7l-3.4-3.4c-0.4-0.4-1-0.4-1.4,0l-3.4,3.4c-0.2,0.2-0.3,0.4-0.3,0.7
		c0-0.2-0.1-0.5-0.3-0.7l-3.4-3.4c-0.4-0.4-1-0.4-1.4,0l-3.4,3.4c-0.2,0.2-0.3,0.4-0.3,0.7c0-0.2-0.1-0.5-0.3-0.7l-3.4-3.4
		c-0.4-0.4-1-0.4-1.4,0l-3.4,3.4c-0.2,0.2-0.3,0.4-0.3,0.7c0-0.2-0.1-0.5-0.3-0.7l-3.4-3.4c-0.4-0.4-1-0.4-1.4,0l-3.4,3.4
		c-0.2,0.2-0.3,0.4-0.3,0.7c0-0.2-0.1-0.5-0.3-0.7l-3.4-3.4c-0.4-0.4-1-0.4-1.4,0l-3.4,3.4c-0.2,0.2-0.3,0.4-0.3,0.7
		c0-0.2-0.1-0.5-0.3-0.7l-3.4-3.4c-0.4-0.4-1-0.4-1.4,0l-3.4,3.4c-0.2,0.2-0.3,0.4-0.3,0.7c0-0.2-0.1-0.5-0.3-0.7l-3.4-3.4
		c-0.4-0.4-1-0.4-1.4,0l-3.4,3.4c-0.2,0.2-0.3,0.4-0.3,0.7c0-0.2-0.1-0.5-0.3-0.7l-3.4-3.4c-0.4-0.4-1-0.4-1.4,0l-1.7,1.7v-7.1
		h101.4v7.1L191.5,87.1z M91.8,143.1V136l1.7,1.6c0.4,0.4,1,0.4,1.4,0l3.4-3.4c0.2-0.2,0.3-0.4,0.3-0.7c0,0.2,0.1,0.5,0.3,0.7
		l3.4,3.4c0.4,0.4,1,0.4,1.4,0l3.4-3.4c0.2-0.2,0.3-0.4,0.3-0.7c0,0.2,0.1,0.5,0.3,0.7l3.4,3.4c0.4,0.4,1,0.4,1.4,0l3.4-3.4
		c0.2-0.2,0.3-0.4,0.3-0.7c0,0.2,0.1,0.5,0.3,0.7l3.4,3.4c0.4,0.4,1,0.4,1.4,0l3.4-3.4c0.2-0.2,0.3-0.4,0.3-0.7
		c0,0.2,0.1,0.5,0.3,0.7l3.4,3.4c0.4,0.4,1,0.4,1.4,0l3.4-3.4c0.2-0.2,0.3-0.4,0.3-0.7c0,0.2,0.1,0.5,0.3,0.7l3.4,3.4
		c0.4,0.4,1,0.4,1.4,0l3.4-3.4c0.2-0.2,0.3-0.4,0.3-0.7c0,0.2,0.1,0.5,0.3,0.7l3.4,3.4c0.4,0.4,1,0.4,1.4,0l3.4-3.4
		c0.2-0.2,0.3-0.4,0.3-0.7c0,0.2,0.1,0.5,0.3,0.7l3.4,3.4c0.4,0.4,1,0.4,1.4,0l3.4-3.4c0.2-0.2,0.3-0.4,0.3-0.7
		c0,0.2,0.1,0.5,0.3,0.7l3.4,3.4c0.4,0.4,1,0.4,1.4,0l3.4-3.4c0.2-0.2,0.3-0.4,0.3-0.7c0,0.2,0.1,0.5,0.3,0.7l3.4,3.4
		c0.4,0.4,1,0.4,1.4,0l3.4-3.4c0.2-0.2,0.3-0.4,0.3-0.7c0,0.2,0.1,0.5,0.3,0.7l3.4,3.4c0.4,0.4,1,0.4,1.4,0l3.4-3.4
		c0.2-0.2,0.3-0.4,0.3-0.7c0,0.2,0.1,0.5,0.3,0.7l3.4,3.4c0.4,0.4,1,0.4,1.4,0l1.7-1.7v7.1H91.8z M191.5,129.4c-0.4-0.4-1-0.4-1.4,0
		l-3.4,3.4c-0.2,0.2-0.3,0.4-0.3,0.7c0-0.2-0.1-0.5-0.3-0.7l-3.4-3.4c-0.4-0.4-1-0.4-1.4,0l-3.4,3.4c-0.2,0.2-0.3,0.4-0.3,0.7
		c0-0.2-0.1-0.5-0.3-0.7l-3.4-3.4c-0.4-0.4-1-0.4-1.4,0l-3.4,3.4c-0.2,0.2-0.3,0.4-0.3,0.7c0-0.2-0.1-0.5-0.3-0.7l-3.4-3.4
		c-0.4-0.4-1-0.4-1.4,0l-3.4,3.4c-0.2,0.2-0.3,0.4-0.3,0.7c0-0.2-0.1-0.5-0.3-0.7l-3.4-3.4c-0.4-0.4-1-0.4-1.4,0l-3.4,3.4
		c-0.2,0.2-0.3,0.4-0.3,0.7c0-0.2-0.1-0.5-0.3-0.7l-3.4-3.4c-0.4-0.4-1-0.4-1.4,0l-3.4,3.4c-0.2,0.2-0.3,0.4-0.3,0.7
		c0-0.2-0.1-0.5-0.3-0.7l-3.4-3.4c-0.4-0.4-1-0.4-1.4,0l-3.4,3.4c-0.2,0.2-0.3,0.4-0.3,0.7c0-0.2-0.1-0.5-0.3-0.7l-3.4-3.4
		c-0.4-0.4-1-0.4-1.4,0l-3.4,3.4c-0.2,0.2-0.3,0.4-0.3,0.7c0-0.2-0.1-0.5-0.3-0.7l-3.4-3.4c-0.4-0.4-1-0.4-1.4,0l-3.4,3.4
		c-0.2,0.2-0.3,0.4-0.3,0.7c0-0.2-0.1-0.5-0.3-0.7l-3.4-3.4c-0.4-0.4-1-0.4-1.4,0l-3.4,3.4c-0.2,0.2-0.3,0.4-0.3,0.7
		c0-0.2-0.1-0.5-0.3-0.7l-3.4-3.4c-0.4-0.4-1-0.4-1.4,0l-3.4,3.4c-0.2,0.2-0.3,0.4-0.3,0.7c0-0.2-0.1-0.5-0.3-0.7l-3.4-3.4
		c-0.4-0.4-1-0.4-1.4,0l-1.7,1.7V124h101.4v7.1L191.5,129.4z M193.2,77.6H91.8v-5.5h101.4V77.6z M193.2,56.1v2.4h-40
		c-1.1,0-2,0.9-2,2c0,1.1,0.9,2,2,2h40V68H91.8v-5.5H145c1.1,0,2-0.9,2-2c0-1.1-0.9-2-2-2H91.8v-4.4h99.3
		C192.2,54.1,193.2,55,193.2,56.1z M61.8,52.1c0-3.5,1.3-6.7,3.8-9.2c2.4-2.4,5.7-3.8,9.2-3.8c7.1,0,12.9,5.8,12.9,12.9v94.6
		c-3.1-3.7-7.8-6-12.9-6c-5.2,0-9.8,2.3-12.9,6V52.1z M61.8,157.8C61.8,157.8,61.8,157.8,61.8,157.8L61.8,157.8
		c0-7.2,5.8-13,12.9-13c7.1,0,12.9,5.8,12.9,12.9c0,7.1-5.8,12.9-12.9,12.9h0C67.6,170.7,61.8,164.9,61.8,157.8z M191.1,170.7H85.8
		c1.5-1.3,2.8-2.8,3.8-4.6c0.2,0.1,0.5,0.2,0.8,0.2h102.8v2.4C193.2,169.8,192.2,170.7,191.1,170.7z"/>
</g>
</svg>
