<?xml version="1.0" encoding="utf-8"?>
<!-- Generator: Adobe Illustrator 27.2.0, SVG Export Plug-In . SVG Version: 6.00 Build 0)  -->
<svg version="1.1" id="Capa_1" xmlns="http://www.w3.org/2000/svg" xmlns:xlink="http://www.w3.org/1999/xlink" x="0px" y="0px"
	 viewBox="0 0 255 209.8" style="enable-background:new 0 0 255 209.8;" xml:space="preserve">
<style type="text/css">
	.st0{fill-rule:evenodd;clip-rule:evenodd;}
	.st1{fill:#FFFFFF;}
	.st2{fill:#81A36E;}
	.st3{fill:#E1D7D0;}
	.st4{fill:none;stroke:#81A36E;stroke-width:1.5;stroke-linecap:round;stroke-linejoin:round;stroke-miterlimit:10;}
	.st5{fill:none;stroke:#FFFFFF;stroke-width:1.5;stroke-linecap:round;stroke-linejoin:round;stroke-miterlimit:10;}
	.st6{fill:#232323;}
	.st7{fill:#8E8D8D;}
	.st8{fill:#73A96B;}
	.st9{fill:#667F61;}
	.st10{fill-rule:evenodd;clip-rule:evenodd;fill:#616161;}
</style>
<g>
	<path class="st0" d="M174.9,123.8c-3,0-5.9,0.5-8.8,1.4c-10.5,3.8-21.5,5.8-32.6,6.1h-12c-11.1-0.2-22.1-2.3-32.6-6.1
		c-2.8-1-5.8-1.4-8.8-1.4c-15.1,0-27.4,12.3-27.4,27.4s12.3,27.4,27.4,27.4c3,0,5.9-0.5,8.8-1.4c10.5-3.8,21.5-5.8,32.6-6.1h12
		c11.1,0.2,22.1,2.3,32.6,6.1c2.8,1,5.8,1.4,8.8,1.4c15.1,0,27.4-12.3,27.4-27.4S190,123.8,174.9,123.8z M174.9,173.7
		c-2.4,0-4.9-0.4-7.2-1.2c-11-4-22.5-6.1-34.2-6.3h-12c-11.7,0.2-23.2,2.3-34.2,6.3c-2.3,0.8-4.7,1.2-7.2,1.2
		c-12.4,0-22.4-10-22.4-22.4s10.1-22.4,22.4-22.4c2.4,0,4.9,0.4,7.2,1.2c11,4,22.5,6.1,34.2,6.3h12c11.7-0.2,23.2-2.3,34.2-6.3
		c2.3-0.8,4.7-1.2,7.2-1.2c12.4,0,22.4,10,22.4,22.4S187.3,173.7,174.9,173.7z"/>
	<path class="st0" d="M80.1,133.8c-1.4,0-2.5,1.1-2.5,2.5c0,1.4,1.1,2.5,2.5,2.5c1.4,0,2.5-1.1,2.5-2.5
		C82.6,134.9,81.5,133.8,80.1,133.8z"/>
	<path class="st0" d="M80.1,163.7c-1.4,0-2.5,1.1-2.5,2.5c0,1.4,1.1,2.5,2.5,2.5c1.4,0,2.5-1.1,2.5-2.5
		C82.6,164.9,81.5,163.7,80.1,163.7z"/>
	<path class="st0" d="M70.1,138.8c-1.4,0-2.5,1.1-2.5,2.5c0,1.4,1.1,2.5,2.5,2.5c1.4,0,2.5-1.1,2.5-2.5
		C72.6,139.9,71.5,138.8,70.1,138.8z"/>
	<path class="st0" d="M90.1,138.8c-1.4,0-2.5,1.1-2.5,2.5c0,1.4,1.1,2.5,2.5,2.5c1.4,0,2.5-1.1,2.5-2.5
		C92.6,139.9,91.5,138.8,90.1,138.8z"/>
	<path class="st0" d="M90.1,158.7c-1.4,0-2.5,1.1-2.5,2.5c0,1.4,1.1,2.5,2.5,2.5c1.4,0,2.5-1.1,2.5-2.5
		C92.6,159.9,91.5,158.7,90.1,158.7z"/>
	<path class="st0" d="M65.2,148.8c-1.4,0-2.5,1.1-2.5,2.5c0,1.4,1.1,2.5,2.5,2.5c1.4,0,2.5-1.1,2.5-2.5
		C67.6,149.9,66.5,148.8,65.2,148.8z"/>
	<path class="st0" d="M80.1,148.8c-1.4,0-2.5,1.1-2.5,2.5c0,1.4,1.1,2.5,2.5,2.5c1.4,0,2.5-1.1,2.5-2.5
		C82.6,149.9,81.5,148.8,80.1,148.8z"/>
	<path class="st0" d="M95.1,148.8c-1.4,0-2.5,1.1-2.5,2.5c0,1.4,1.1,2.5,2.5,2.5c1.4,0,2.5-1.1,2.5-2.5
		C97.6,149.9,96.5,148.8,95.1,148.8z"/>
	<path class="st0" d="M117.5,148.8c-1.4,0-2.5,1.1-2.5,2.5c0,1.4,1.1,2.5,2.5,2.5c1.4,0,2.5-1.1,2.5-2.5
		C120,149.9,118.9,148.8,117.5,148.8z"/>
	<path class="st0" d="M107.6,141.3c-1.4,0-2.5,1.1-2.5,2.5c0,1.4,1.1,2.5,2.5,2.5c1.4,0,2.5-1.1,2.5-2.5
		C110,142.4,108.9,141.3,107.6,141.3z"/>
	<path class="st0" d="M107.6,156.3c-1.4,0-2.5,1.1-2.5,2.5c0,1.4,1.1,2.5,2.5,2.5c1.4,0,2.5-1.1,2.5-2.5
		C110,157.4,108.9,156.3,107.6,156.3z"/>
	<path class="st0" d="M137.5,148.8c-1.4,0-2.5,1.1-2.5,2.5c0,1.4,1.1,2.5,2.5,2.5c1.4,0,2.5-1.1,2.5-2.5
		C140,149.9,138.9,148.8,137.5,148.8z"/>
	<path class="st0" d="M147.5,141.3c-1.4,0-2.5,1.1-2.5,2.5c0,1.4,1.1,2.5,2.5,2.5c1.4,0,2.5-1.1,2.5-2.5
		C149.9,142.4,148.8,141.3,147.5,141.3z"/>
	<path class="st0" d="M147.5,156.3c-1.4,0-2.5,1.1-2.5,2.5c0,1.4,1.1,2.5,2.5,2.5c1.4,0,2.5-1.1,2.5-2.5
		C149.9,157.4,148.8,156.3,147.5,156.3z"/>
	<path class="st0" d="M127.5,141.3c-1.4,0-2.5,1.1-2.5,2.5c0,1.4,1.1,2.5,2.5,2.5c1.4,0,2.5-1.1,2.5-2.5
		C130,142.4,128.9,141.3,127.5,141.3z"/>
	<path class="st0" d="M127.5,156.3c-1.4,0-2.5,1.1-2.5,2.5c0,1.4,1.1,2.5,2.5,2.5c1.4,0,2.5-1.1,2.5-2.5
		C130,157.4,128.9,156.3,127.5,156.3z"/>
	<path class="st0" d="M70.1,158.7c-1.4,0-2.5,1.1-2.5,2.5c0,1.4,1.1,2.5,2.5,2.5c1.4,0,2.5-1.1,2.5-2.5
		C72.6,159.9,71.5,158.7,70.1,158.7z"/>
	<path class="st0" d="M174.9,133.8c-1.4,0-2.5,1.1-2.5,2.5c0,1.4,1.1,2.5,2.5,2.5c1.4,0,2.5-1.1,2.5-2.5
		C177.4,134.9,176.3,133.8,174.9,133.8z"/>
	<path class="st0" d="M174.9,163.7c-1.4,0-2.5,1.1-2.5,2.5c0,1.4,1.1,2.5,2.5,2.5c1.4,0,2.5-1.1,2.5-2.5
		C177.4,164.9,176.3,163.7,174.9,163.7z"/>
	<path class="st0" d="M164.9,138.8c-1.4,0-2.5,1.1-2.5,2.5c0,1.4,1.1,2.5,2.5,2.5c1.4,0,2.5-1.1,2.5-2.5
		C167.4,139.9,166.3,138.8,164.9,138.8z"/>
	<path class="st0" d="M184.9,138.8c-1.4,0-2.5,1.1-2.5,2.5c0,1.4,1.1,2.5,2.5,2.5c1.4,0,2.5-1.1,2.5-2.5
		C187.4,139.9,186.2,138.8,184.9,138.8z"/>
	<path class="st0" d="M184.9,158.7c-1.4,0-2.5,1.1-2.5,2.5c0,1.4,1.1,2.5,2.5,2.5c1.4,0,2.5-1.1,2.5-2.5
		C187.4,159.9,186.2,158.7,184.9,158.7z"/>
	<path class="st0" d="M159.9,148.8c-1.4,0-2.5,1.1-2.5,2.5c0,1.4,1.1,2.5,2.5,2.5c1.4,0,2.5-1.1,2.5-2.5
		C162.4,149.9,161.3,148.8,159.9,148.8z"/>
	<path class="st0" d="M174.9,148.8c-1.4,0-2.5,1.1-2.5,2.5c0,1.4,1.1,2.5,2.5,2.5c1.4,0,2.5-1.1,2.5-2.5
		C177.4,149.9,176.3,148.8,174.9,148.8z"/>
	<path class="st0" d="M189.9,148.8c-1.4,0-2.5,1.1-2.5,2.5c0,1.4,1.1,2.5,2.5,2.5c1.4,0,2.5-1.1,2.5-2.5
		C192.3,149.9,191.2,148.8,189.9,148.8z"/>
	<path class="st0" d="M164.9,158.7c-1.4,0-2.5,1.1-2.5,2.5c0,1.4,1.1,2.5,2.5,2.5c1.4,0,2.5-1.1,2.5-2.5
		C167.4,159.9,166.3,158.7,164.9,158.7z"/>
	<path class="st0" d="M55.2,58.4l48.1,33.3c2.1,1.4,4.6,2.2,7.1,2.2c0.9,0,1.8-0.1,2.7-0.3l42.5-8.5c4.5-1,8.1-4.4,9.4-8.8L183.4,87
		c1.9,1.1,4.1,1.7,6.3,1.7c4.5,0,8.6-2.4,10.8-6.2c1.7-2.9,2.1-6.3,1.3-9.5c-0.8-3.2-2.9-6-5.8-7.6l-40.2-23.5
		c-2.8-1.7-6.1-2.1-9.2-1.4l-43.5,10.2L76.3,32.2c-2.4-1.7-5.8-1.3-7.7,1L54.1,49.7c-1.1,1.3-1.6,2.9-1.4,4.6
		C52.9,56,53.8,57.4,55.2,58.4z M57.9,53l14.5-16.6c0.3-0.3,0.8-0.4,1.1-0.1l27.7,19.2c0.6,0.4,1.3,0.5,2,0.4v0l44.6-10.5
		c1.9-0.5,3.9-0.2,5.5,0.8l40.3,23.5c2.9,1.7,4.4,5.2,3.5,8.5c-0.9,3.3-3.9,5.6-7.3,5.6c-1.3,0-2.7-0.3-3.8-1l-20.8-12.1
		c0-0.2,0-0.3-0.1-0.5c-1.5-6.8-8.2-11-15-9.5v0l-34.4,7.7c-0.9,0.2-1.6,0.8-1.9,1.7c-0.3,0.9-0.1,1.8,0.5,2.4
		c0.6,0.7,1.5,0.9,2.4,0.7l34.4-7.7c4.1-0.9,8.1,1.6,9,5.7c0.1,0.4,0.1,0.8,0.2,1.2c0.3,3.7-2.2,7.1-5.8,7.9l-42.5,8.5
		c-2.1,0.4-4.2,0-5.9-1.2L58,54.3c-0.2-0.1-0.3-0.4-0.4-0.6C57.6,53.5,57.7,53.2,57.9,53z"/>
	<path class="st0" d="M127.5,96.4c-1.4,0-2.5,1.1-2.5,2.5v16.4l-3.2-3.2c-1-0.9-2.5-0.9-3.5,0c-1,1-1,2.5,0,3.5l7.5,7.5
		c1,1,2.6,1,3.5,0l7.5-7.5c0.9-1,0.9-2.5,0-3.5c-1-1-2.5-1-3.5,0l-3.2,3.2V98.9C130,97.5,128.9,96.4,127.5,96.4z"/>
	<path class="st0" d="M152.4,96.4c-1.4,0-2.5,1.1-2.5,2.5v16.4l-3.2-3.2c-1-0.9-2.5-0.9-3.5,0c-1,1-1,2.5,0,3.5l7.5,7.5
		c1,1,2.6,1,3.5,0l7.5-7.5c0.9-1,0.9-2.5,0-3.5c-1-1-2.5-1-3.5,0l-3.2,3.2V98.9C154.9,97.5,153.8,96.4,152.4,96.4z"/>
	<path class="st0" d="M102.6,96.4c-1.4,0-2.5,1.1-2.5,2.5v16.4l-3.2-3.2c-1-0.9-2.5-0.9-3.5,0c-1,1-1,2.5,0,3.5l7.5,7.5
		c1,1,2.6,1,3.5,0l7.5-7.5c0.9-1,0.9-2.5,0-3.5c-1-1-2.5-1-3.5,0l-3.2,3.2V98.9C105.1,97.5,103.9,96.4,102.6,96.4z"/>
</g>
</svg>
